<svg width="25" height="24" viewBox="0 0 25 24" fill="none" xmlns="http://www.w3.org/2000/svg">
<path d="M12.5 1.25C6.56303 1.25 1.75 6.06303 1.75 12C1.75 17.937 6.56303 22.75 12.5 22.75C18.437 22.75 23.25 17.937 23.25 12C23.2431 6.06581 18.4342 1.25689 12.5 1.25ZM21.1256 16.3591L19.2604 15.2828C19.6798 14.4234 19.9302 13.4914 19.9977 12.5375H22.1477C22.0762 13.8685 21.7281 15.1701 21.1256 16.3591ZM11.9625 19.4977V21.6477C10.6312 21.5762 9.32943 21.2279 8.14036 20.6253L9.21706 18.7606C10.0766 19.1802 11.0086 19.4303 11.9625 19.4977ZM13.0375 19.4977C13.9914 19.4303 14.9234 19.1802 15.7829 18.7606L16.8596 20.6253C15.6706 21.2279 14.3688 21.5762 13.0375 21.6477V19.4977ZM12.5 18.4501C8.93772 18.4501 6.04993 15.5623 6.04993 12C6.04993 8.43772 8.93772 5.54993 12.5 5.54993C16.0623 5.54993 18.9501 8.43772 18.9501 12C18.9461 15.5606 16.0606 18.4461 12.5 18.4501ZM2.85229 12.5375H5.00226C5.06968 13.4914 5.31983 14.4234 5.73926 15.2828L3.87438 16.3591C3.27189 15.1701 2.92381 13.8685 2.85229 12.5375ZM3.87438 7.64085L5.73959 8.71723C5.31999 9.57659 5.06968 10.5086 5.00226 11.4625H2.85229C2.92381 10.1315 3.27189 8.82992 3.87438 7.64085ZM13.0375 4.50226V2.35229C14.3688 2.42381 15.6706 2.77189 16.8596 3.37471L15.7829 5.23942C14.9234 4.81983 13.9914 4.56968 13.0375 4.50226ZM11.9625 4.50226C11.0086 4.56968 10.0766 4.81983 9.21706 5.23942L8.14036 3.37471C9.32943 2.77205 10.6312 2.42381 11.9625 2.35229V4.50226ZM19.9977 11.4625C19.9303 10.5086 19.6802 9.57659 19.2607 8.71723L21.1258 7.64085C21.7283 8.82992 22.0764 10.1315 22.1477 11.4625H19.9977ZM20.5899 6.70866L18.7286 7.78307C18.1908 6.99145 17.5081 6.30875 16.7164 5.77089L17.7915 3.90978C18.9059 4.64153 19.8583 5.59406 20.5899 6.70866ZM7.20882 3.90978L8.28356 5.77105C7.49194 6.30891 6.80924 6.99145 6.27154 7.78307L4.41011 6.70866C5.14169 5.59406 6.09422 4.64153 7.20882 3.90978ZM4.41011 17.2913L6.27138 16.2169C6.80924 17.0086 7.49194 17.6913 8.28356 18.229L7.20882 20.0902C6.09422 19.3585 5.14169 18.4059 4.41011 17.2913ZM17.7912 20.0902L16.7161 18.229C17.5077 17.6913 18.1904 17.0086 18.7283 16.2169L20.5896 17.2913C19.8581 18.4059 18.9056 19.3585 17.7912 20.0902Z" fill="#0099FA"/>
<path d="M15.7242 10.9249C15.3467 10.9295 15.0003 11.1342 14.8145 11.4625H14.0127C13.8504 11.0071 13.492 10.6489 13.0367 10.4865V9.68486C13.3649 9.49868 13.5696 9.15225 13.5742 8.77497C13.5742 8.18134 13.0929 7.70007 12.4992 7.70007C11.9055 7.70007 11.4243 8.18134 11.4243 8.77497C11.4288 9.15225 11.6336 9.49885 11.9618 9.68486V10.4865C11.5064 10.6489 11.148 11.0071 10.9858 11.4625H10.184C9.99799 11.1342 9.65156 10.9295 9.27428 10.9249C8.68065 10.9249 8.19922 11.4064 8.19922 12C8.19922 12.5936 8.68065 13.0751 9.27428 13.0751C9.65156 13.0705 9.99799 12.8658 10.184 12.5375H10.9858C11.148 12.9929 11.5064 13.3511 11.9618 13.5135V14.3152C11.6336 14.5013 11.4288 14.8478 11.4243 15.225C11.4243 15.8187 11.9055 16.2999 12.4992 16.2999C13.0929 16.2999 13.5742 15.8187 13.5742 15.225C13.5696 14.8478 13.3649 14.5012 13.0367 14.3152V13.5135C13.492 13.3511 13.8504 12.9929 14.0127 12.5375H14.8145C15.0005 12.8658 15.3469 13.0705 15.7242 13.0751C16.3178 13.0751 16.7991 12.5936 16.7991 12C16.7991 11.4064 16.3178 10.9249 15.7242 10.9249ZM12.4992 12.5375C12.2023 12.5375 11.9616 12.2969 11.9616 12C11.9616 11.7031 12.2023 11.4625 12.4992 11.4625C12.7961 11.4625 13.0367 11.7031 13.0367 12C13.0364 12.2967 12.7959 12.5372 12.4992 12.5375Z" fill="#0099FA"/>
</svg>
