<?xml version="1.0" encoding="UTF-8"?>
<svg id="Layer_2" data-name="Layer 2" xmlns="http://www.w3.org/2000/svg" viewBox="0 0 314.54 188.32">
  <defs>
    <style>
      .cls-1 {
        fill: none;
      }

      .cls-1, .cls-2, .cls-3 {
        stroke-width: 0px;
      }

      .cls-2 {
        fill: #0099fa;
      }

      .cls-3 {
        fill: #fff;
      }
    </style>
  </defs>
  <g id="Layer_1-2" data-name="Layer 1">
    <g>
      <polygon class="cls-2" points="17.28 0 17.28 56.3 39.54 56.3 222.2 56.3 223.17 56.3 246.32 0 17.28 0"/>
      <g>
        <path class="cls-3" d="M31.53,10.7h14.11c2.07,0,3.95.26,5.64.78,1.69.52,3.14,1.28,4.33,2.28,1.19,1,2.11,2.23,2.75,3.67.64,1.44.96,3.09.96,4.94,0,1.95-.35,3.65-1.06,5.13-.71,1.47-1.69,2.71-2.94,3.71-1.25,1-2.75,1.76-4.49,2.26-1.74.5-3.63.75-5.67.75h-4.52v9.41h-9.13V10.7ZM44.98,27.06c1.63,0,2.91-.39,3.83-1.17.93-.78,1.39-1.85,1.39-3.2s-.46-2.48-1.39-3.22-2.22-1.11-3.88-1.11h-4.28v8.7h4.33Z"/>
        <path class="cls-3" d="M63.18,10.7h9.12v24.93h14.72l-3.39,8h-20.46V10.7Z"/>
        <path class="cls-3" d="M103.53,10.46h8.8l14.01,33.16h-9.78l-2.4-5.88h-12.7l-2.35,5.88h-9.59l14.02-33.16ZM111.53,30.64l-3.67-9.36-3.71,9.36h7.38Z"/>
        <path class="cls-3" d="M133.87,31.3l-12.51-20.6h10.4l6.77,11.99,6.82-11.99h10.21l-12.51,20.46v12.46h-9.17v-12.32Z"/>
        <path class="cls-3" d="M158.38,10.7h26.67l-3.29,7.76h-14.35v4.98h12.23l-3.01,7.2h-9.22v5.22h17.69v7.76h-26.72V10.7Z"/>
        <path class="cls-3" d="M189.75,10.7h15.57c1.88,0,3.65.2,5.32.61s3.1,1.07,4.33,1.98c1.22.91,2.2,2.09,2.92,3.53.72,1.44,1.08,3.18,1.08,5.22,0,2.54-.61,4.64-1.83,6.3-1.22,1.66-2.87,2.93-4.94,3.81l7.85,11.48h-10.54l-6.63-9.97h-4v9.97h-9.13V10.7ZM204.89,26.5c1.57,0,2.77-.35,3.62-1.06.85-.71,1.27-1.68,1.27-2.94s-.44-2.3-1.32-2.94c-.88-.64-2.09-.96-3.62-.96h-5.97v7.9h6.02Z"/>
      </g>
      <path class="cls-1" d="M136.14,59.8s-.05.02-.08.03c0,0,0,0,0,0,.02-.01.05-.02.08-.03Z"/>
      <path class="cls-1" d="M44.7,55.47s-.03,0-.04,0c.05,0,.12.02.19.03-.05-.01-.11-.03-.15-.03Z"/>
      <path class="cls-1" d="M115.56,59.89s-.06,0-.09,0c.05,0,.1,0,.16,0-.02,0-.04,0-.07,0Z"/>
      <path class="cls-1" d="M136.56,59.73s-.04,0-.06,0c.03,0,.06,0,.1,0-.01,0-.02,0-.04,0Z"/>
      <path class="cls-1" d="M191.71,63.11c-.06,0-.13,0-.19.01.08,0,.16,0,.23,0-.02,0-.03,0-.04,0Z"/>
      <path class="cls-1" d="M215.58,63.92s-.02,0-.02,0c.01,0,.03,0,.03,0,0,0,0,0-.01,0Z"/>
      <path class="cls-1" d="M75.7,59.24c-.06,0-.13,0-.2,0,.11,0,.22,0,.33,0-.04,0-.09,0-.13,0Z"/>
      <path class="cls-1" d="M96.01,59.89s.1,0,.15,0c-.03,0-.06,0-.08,0-.02,0-.04,0-.06,0Z"/>
      <path class="cls-1" d="M180.47,62.7c-.05,0-.09,0-.12,0,.04,0,.09,0,.15,0,0,0-.02,0-.03,0Z"/>
      <path class="cls-1" d="M207.68,61.63s0,0-.01,0c.02,0,.03,0,.05,0-.01,0-.02,0-.04,0Z"/>
      <path class="cls-2" d="M229.53,147.9c-4.68-3.86-11.84-5.99-21.73-6.73,12.23-28.4,11.78-68.16,11.76-70.62-.04-4.02-1.79-6.31-5.08-6.73-.26-.03-.52-.05-.77-.05-2.97,0-5.57,2.22-5.96,5.26-.09.74-.13,1.6-.14,2.71-2.4,18.16-16.73,40.64-26.11,40.88-.11,0-.21,0-.32,0-1.15,0-1.99-.21-2.28-.56-1.87-2.2-.21-10.87.59-15.04.28-1.46.54-2.84.74-4.1.51-3.28-1.74-6.36-5.02-6.86-.31-.05-.61-.07-.91-.07-2.91,0-5.49,2.12-5.95,5.09-.16,1.05-.41,2.32-.67,3.67-.53,2.78-1.13,5.92-1.44,9.12,0,0-.01.01-.02.02-6.67,9.17-16.82,17.07-21.78,17.07-.17,0-.34,0-.5-.03-.46-.06-1.53-.19-2.61-2.85-1.65-4.05.37-18.3,5.55-36.19,13.6-3.08,26.64-5.5,36.54-7.25,3.27-.58,5.45-3.7,4.87-6.97-.52-2.92-3.05-4.97-5.92-4.97-.35,0-.7.03-1.05.09-8.36,1.48-18.94,3.43-30.23,5.85,1.06-3.06,2.19-6.17,3.4-9.31,1.19-3.1-.35-6.58-3.45-7.77-.71-.27-1.44-.4-2.16-.4-2.42,0-4.69,1.46-5.61,3.85-.29.75-2.89,7.55-5.81,16.72-5.29,1.27-10.61,2.64-15.81,4.11-3.2.9-5.06,4.23-4.15,7.42.75,2.65,3.16,4.38,5.79,4.38.54,0,1.09-.07,1.64-.23,2.84-.8,5.73-1.57,8.62-2.32-1.97,7.42-3.66,15.19-4.37,22.04-8.83,13.9-20.37,19.89-26.22,19.89-.19,0-.38,0-.56-.02-1.33-.09-1.76-.46-1.94-.74-.46-3.25,2.43-16.93,7.63-32.71.94-2.87-.39-6-3.11-7.3-.83-.4-1.72-.59-2.59-.59-1.98,0-3.91.98-5.05,2.74-8.42,12.96-15.04,20.94-23.63,28.46l-1.5,1.32c-8.68,7.66-18.51,16.3-35.22,16.3-.47,0-.94,0-1.42-.02-3.29-.1-12.96-1.91-18.05-9-4.28-5.97-4.72-14.7-1.3-25.95,5.48-17.98,19.94-30.35,37.74-32.27.71-.07,1.42-.11,2.13-.11,5.36,0,10.53,2.06,12.35,5.1,3.51,5.89-.49,12.96-10.99,19.41-2.83,1.74-3.72,5.44-1.98,8.27,1.13,1.85,3.11,2.87,5.13,2.87,1.07,0,2.16-.29,3.14-.89,19.64-12.07,20.64-26.42,15.02-35.83-4.01-6.7-13.01-10.96-22.64-10.96-1.14,0-2.29.06-3.44.18-22.34,2.41-41.17,18.39-47.97,40.72-4.57,15.03-3.55,27.3,3.04,36.46,7.63,10.63,20.85,13.8,27.46,14,.62.02,1.23.03,1.84.03,21.23,0,33.84-11.12,43.12-19.31l1.47-1.29c2.62-2.29,5.06-4.61,7.42-7.07-1.15,7.13-.58,10.13.33,12.14,2.09,4.7,6.53,7.62,12.18,8.03.47.03.95.05,1.43.05,8.91,0,19.29-5.64,28.01-14.77,3.35,6.6,8.58,8.22,11.53,8.58.62.08,1.25.11,1.9.11,5.16,0,10.95-2.43,17.24-7.25,2.53-1.94,5.08-4.23,7.49-6.7.2.28.39.55.61.82,1.88,2.21,5.38,4.8,11.48,4.8.2,0,.4,0,.6,0,8.62-.22,16.72-6.83,23.23-15.87-1.86,9.93-5.03,20.97-10.4,32.16-24.14.66-59.58,6.36-108.51,14.58-22.97,3.86-46.72,7.85-72.05,11.65-3.29.49-5.55,3.55-5.06,6.84.45,2.98,3.01,5.12,5.94,5.12.3,0,.6-.02.9-.07,25.43-3.81,49.24-7.81,72.26-11.68,35.54-5.97,66.24-11.13,89.99-13.34,3.41-.32,6.63-.56,9.67-.75-5.37,8.43-12.17,16.75-20.8,24.55-2.47,2.23-2.66,6.03-.43,8.49,1.19,1.32,2.82,1.98,4.47,1.98,1.44,0,2.88-.51,4.03-1.55,11.86-10.71,20.57-22.27,26.98-33.82,10.04.22,16.69,1.63,19.85,4.24,1.12.92,2.47,1.37,3.82,1.37,1.73,0,3.45-.75,4.65-2.19,2.11-2.56,1.75-6.35-.82-8.47Z"/>
      <path class="cls-2" d="M106.71,74.52c4.98,0,9.05-4.05,9.05-9.01s-4.07-9.01-9.05-9.01-9.05,4.05-9.05,9.01,4.07,9.01,9.05,9.01Z"/>
      <g>
        <path class="cls-3" d="M227.65,143.09c-4.68-3.86-11.84-5.99-21.73-6.73,12.23-28.4,11.87-54.75,11.96-66.15,0-1.26,0-2.64-.08-4.48-.13-3.32-1.9-6.3-5.2-6.72-.26-.03-.52-.05-.77-.05-2.97,0-5.57,2.22-5.96,5.26-.09.74-.13,1.6-.14,2.71-2.4,18.16-16.73,40.64-26.11,40.88-.11,0-.21,0-.32,0-1.15,0-1.99-.21-2.28-.56-1.87-2.2-.21-10.87.59-15.04.28-1.46.54-2.84.74-4.1.51-3.28-1.74-6.36-5.02-6.86-.31-.05-.61-.07-.91-.07-2.91,0-5.49,2.12-5.95,5.09-.16,1.05-.41,2.32-.67,3.67-.53,2.78-1.13,5.92-1.44,9.12,0,0-.01.01-.02.02-6.67,9.17-16.82,17.07-21.78,17.07-.17,0-.34,0-.5-.03-.46-.06-1.53-.19-2.61-2.85-1.65-4.05.37-18.3,5.55-36.19,13.6-3.08,26.64-5.5,36.54-7.25,3.27-.58,5.45-3.7,4.87-6.97-.52-2.92-3.05-4.97-5.92-4.97-.35,0-.7.03-1.05.09-8.36,1.48-18.94,3.43-30.23,5.85,1.06-3.06,2.19-6.17,3.4-9.31,1.19-3.1-.35-6.58-3.45-7.77-.71-.27-1.44-.4-2.16-.4-2.42,0-4.69,1.46-5.61,3.85-.29.75-2.89,7.55-5.81,16.72-5.29,1.27-10.61,2.64-15.81,4.11-3.2.9-5.06,4.23-4.15,7.42.75,2.65,3.16,4.38,5.79,4.38.54,0,1.09-.07,1.64-.23,2.84-.8,5.73-1.57,8.62-2.32-1.97,7.42-3.66,15.19-4.37,22.04-8.83,13.9-20.37,19.89-26.22,19.89-.19,0-.38,0-.56-.02-1.33-.09-1.76-.46-1.94-.74-.46-3.25,2.43-16.93,7.63-32.71.94-2.87-.39-6-3.11-7.3-.83-.4-1.72-.59-2.59-.59-1.98,0-3.91.98-5.05,2.74-8.42,12.96-15.04,20.94-23.63,28.46l-1.5,1.32c-8.68,7.66-18.51,16.3-35.22,16.3-.47,0-.94,0-1.42-.02-3.29-.1-12.96-1.91-18.05-9-4.28-5.97-4.72-14.7-1.3-25.95,5.48-17.98,19.94-30.35,37.74-32.27.71-.07,1.42-.11,2.13-.11,5.36,0,10.53,2.06,12.35,5.1,3.51,5.89-.49,12.96-10.99,19.41-2.83,1.74-3.72,5.44-1.98,8.27,1.13,1.85,3.11,2.87,5.13,2.87,1.07,0,2.16-.29,3.14-.89,19.64-12.07,20.64-26.42,15.02-35.83-4.01-6.7-13.01-10.96-22.64-10.96-1.14,0-2.29.06-3.44.18-22.34,2.41-41.17,18.39-47.97,40.72-4.57,15.03-3.55,27.3,3.04,36.46,7.63,10.63,20.85,13.8,27.46,14,.62.02,1.23.03,1.84.03,21.23,0,33.84-11.12,43.12-19.31l1.47-1.29c2.62-2.29,5.06-4.61,7.42-7.07-1.15,7.13-.58,10.13.33,12.14,2.09,4.7,6.53,7.62,12.18,8.03.47.03.95.05,1.43.05,8.91,0,19.29-5.64,28.01-14.77,3.35,6.6,8.58,8.22,11.53,8.58.62.08,1.25.11,1.9.11,5.16,0,10.95-2.43,17.24-7.25,2.53-1.94,5.08-4.23,7.49-6.7.2.28.39.55.61.82,1.88,2.21,5.38,4.8,11.48,4.8.2,0,.4,0,.6,0,8.62-.22,16.72-6.83,23.23-15.87-1.86,9.93-5.03,20.97-10.4,32.16-24.14.66-59.58,6.36-108.51,14.58-22.97,3.86-46.72,7.85-72.05,11.65-3.29.49-5.55,3.55-5.06,6.84.45,2.98,3.01,5.12,5.94,5.12.3,0,.6-.02.9-.07,25.43-3.81,49.24-7.81,72.26-11.68,35.54-5.97,66.24-11.13,89.99-13.34,3.41-.32,6.63-.56,9.67-.75-5.37,8.43-12.17,16.75-20.8,24.55-2.47,2.23-2.66,6.03-.43,8.49,1.19,1.32,2.82,1.98,4.47,1.98,1.44,0,2.88-.51,4.03-1.55,11.86-10.71,20.57-22.27,26.98-33.82,10.04.22,16.69,1.63,19.85,4.24,1.12.92,2.47,1.37,3.82,1.37,1.73,0,3.45-.75,4.65-2.19,2.11-2.56,1.75-6.35-.82-8.47Z"/>
        <path class="cls-3" d="M105.21,70.38c4.98,0,9.05-4.05,9.05-9.01s-4.07-9.01-9.05-9.01-9.05,4.05-9.05,9.01,4.07,9.01,9.05,9.01Z"/>
      </g>
      <path class="cls-1" d="M214.48,63.83c-.26-.03-.52-.05-.77-.05-2.97,0-5.57,2.22-5.96,5.26-.09.74-.13,1.6-.14,2.71-2.4,18.16-16.73,40.64-26.11,40.88-.11,0-.21,0-.32,0-1.15,0-1.99-.21-2.28-.56-1.87-2.2-.21-10.87.59-15.04.28-1.46.54-2.84.74-4.1.51-3.28-1.74-6.36-5.02-6.86-.31-.05-.61-.07-.91-.07-2.91,0-5.49,2.12-5.95,5.09-.16,1.05-.41,2.32-.67,3.67-.53,2.78-1.13,5.92-1.44,9.12,0,0-.01.01-.02.02-6.67,9.17-16.82,17.07-21.78,17.07-.17,0-.34,0-.5-.03-.46-.06-1.53-.19-2.61-2.85-1.65-4.05.37-18.3,5.55-36.19,13.6-3.08,26.64-5.5,36.54-7.25,3.27-.58,5.45-3.7,4.87-6.97-.52-2.92-3.05-4.97-5.92-4.97-.35,0-.7.03-1.05.09-8.36,1.48-18.94,3.43-30.23,5.85,1.06-3.06,2.19-6.17,3.4-9.31,1.19-3.1-.35-6.58-3.45-7.77-.71-.27-1.44-.4-2.16-.4-2.42,0-4.69,1.46-5.61,3.85-.29.75-2.89,7.55-5.81,16.72-5.29,1.27-10.61,2.64-15.81,4.11-3.2.9-5.06,4.23-4.15,7.42.75,2.65,3.16,4.38,5.79,4.38.54,0,1.09-.07,1.64-.23,2.84-.8,5.73-1.57,8.62-2.32-1.97,7.42-3.66,15.19-4.37,22.04-8.83,13.9-20.37,19.89-26.22,19.89-.19,0-.38,0-.56-.02-1.33-.09-1.76-.46-1.94-.74-.46-3.25,2.43-16.93,7.63-32.71.94-2.87-.39-6-3.11-7.3-.83-.4-1.72-.59-2.59-.59-1.98,0-3.91.98-5.05,2.74-8.42,12.96-15.04,20.94-23.63,28.46l-1.5,1.32c-8.68,7.66-18.51,16.3-35.22,16.3-.47,0-.94,0-1.42-.02-3.29-.1-12.96-1.91-18.05-9-4.28-5.97-4.72-14.7-1.3-25.95,5.48-17.98,19.94-30.35,37.74-32.27.71-.07,1.42-.11,2.13-.11,5.36,0,10.53,2.06,12.35,5.1,3.51,5.89-.49,12.96-10.99,19.41-2.83,1.74-3.72,5.44-1.98,8.27,1.13,1.85,3.11,2.87,5.13,2.87,1.07,0,2.16-.29,3.14-.89,19.64-12.07,20.64-26.42,15.02-35.83-4.01-6.7-13.01-10.96-22.64-10.96-1.14,0-2.29.06-3.44.18-22.34,2.41-41.17,18.39-47.97,40.72-4.57,15.03-3.55,27.3,3.04,36.46,7.63,10.63,20.85,13.8,27.46,14,.62.02,1.23.03,1.84.03,21.23,0,33.84-11.12,43.12-19.31l1.47-1.29c2.62-2.29,5.06-4.61,7.42-7.07-1.15,7.13-.58,10.13.33,12.14,2.09,4.7,6.53,7.62,12.18,8.03.47.03.95.05,1.43.05,8.91,0,19.29-5.64,28.01-14.77,3.35,6.6,8.58,8.22,11.53,8.58.62.08,1.25.11,1.9.11,5.16,0,10.95-2.43,17.24-7.25,2.53-1.94,5.08-4.23,7.49-6.7.2.28.39.55.61.82,1.88,2.21,5.38,4.8,11.48,4.8.2,0,.4,0,.6,0,8.62-.22,16.72-6.83,23.23-15.87-1.86,9.93-5.03,20.97-10.4,32.16-24.14.66-59.58,6.36-108.51,14.58-22.97,3.86-46.72,7.85-72.05,11.65-3.29.49-5.55,3.55-5.06,6.84.45,2.98,3.01,5.12,5.94,5.12.3,0,.6-.02.9-.07,25.43-3.81,49.24-7.81,72.26-11.68,35.54-5.97,66.24-11.13,89.99-13.34,3.41-.32,6.63-.56,9.67-.75-5.37,8.43-12.17,16.75-20.8,24.55-2.47,2.23-2.66,6.03-.43,8.49,1.19,1.32,2.82,1.98,4.47,1.98,1.44,0,2.88-.51,4.03-1.55,11.86-10.71,20.57-22.27,26.98-33.82,10.04.22,16.69,1.63,19.85,4.24,1.12.92,2.47,1.37,3.82,1.37,1.73,0,3.45-.75,4.65-2.19,2.11-2.56,1.75-6.35-.82-8.47-4.68-3.86-11.84-5.99-21.73-6.73,12.23-28.4,11.78-68.16,11.76-70.62-.04-4.02-1.79-6.31-5.08-6.73Z"/>
      <g>
        <path class="cls-2" d="M223.84,116.77l64.57-8.91,9.11-22.19-70.64,9.86c-.63,6.53-1.59,13.8-3.04,21.23Z"/>
        <path class="cls-2" d="M227.89,68.15c.1.77.17,1.55.18,2.36.03,2.78,0,9.95-.69,19.32l77-19.6,10.17-24.74-86.66,22.65Z"/>
        <path class="cls-2" d="M219.43,134.25c6.44,1.45,11.49,3.78,15.51,7.09.6.5,1.15,1.05,1.66,1.62h37.77l8.68-20.7h-60.38c-.92,4.02-1.99,8.05-3.25,11.99Z"/>
      </g>
    </g>
  </g>
</svg>