<svg width="40" height="40" viewBox="0 0 40 40" fill="none" xmlns="http://www.w3.org/2000/svg">
<path fill-rule="evenodd" clip-rule="evenodd" d="M26.6667 35H13.3333C11.5 35 10 33.5 10 31.6667V8.33333C10 6.5 11.5 5 13.3333 5H26.6667C28.5 5 30 6.5 30 8.33333V31.6667C30 33.5 28.5 35 26.6667 35Z" stroke="white" stroke-width="1.5" stroke-linecap="round" stroke-linejoin="round"/>
<path d="M20 28.8333C19.8333 28.8333 19.6667 29 19.6667 29.3333C19.6667 29.5 19.8333 29.6666 20.1667 29.6666C20.3333 29.6666 20.5 29.5 20.5 29.3333C20.3333 29 20.1667 28.8333 20 28.8333" stroke="white" stroke-width="1.5" stroke-linecap="round" stroke-linejoin="round"/>
<path d="M17.833 9.99996H21.9997" stroke="white" stroke-width="1.5" stroke-linecap="round" stroke-linejoin="round"/>
</svg>
