
<svg width="28" height="28" viewBox="0 0 28 28" fill="none" xmlns="http://www.w3.org/2000/svg">
<rect width="28" height="28" rx="8" fill="#0074FF"/>
<path d="M13.9993 8.16668C17.9113 8.16668 21.0827 11.338 21.0827 15.25C21.0827 19.162 17.9113 22.3333 13.9993 22.3333C10.0873 22.3333 6.91602 19.162 6.91602 15.25C6.91602 11.338 10.0873 8.16668 13.9993 8.16668ZM13.9993 10.6667C13.6829 10.6667 13.4214 10.9018 13.38 11.2069L13.3743 11.2917V15.0417L13.38 15.1265C13.4214 15.4315 13.6829 15.6667 13.9993 15.6667C14.3158 15.6667 14.5773 15.4315 14.6187 15.1265L14.6243 15.0417V11.2917L14.6187 11.2069C14.5773 10.9018 14.3158 10.6667 13.9993 10.6667ZM19.9747 8.26884L20.0424 8.32021L21 9.15354C21.2603 9.38015 21.2878 9.77493 21.0612 10.0353C20.8534 10.274 20.5044 10.3169 20.2471 10.1478L20.1793 10.0965L19.2218 9.26314C18.9614 9.03654 18.9341 8.64176 19.1607 8.38138C19.3683 8.14269 19.7174 8.09979 19.9747 8.26884ZM15.8743 6.08334C16.2195 6.08334 16.4993 6.36317 16.4993 6.70834C16.4993 7.02476 16.2642 7.28625 15.9592 7.32764L15.8743 7.33334H12.1243C11.7792 7.33334 11.4993 7.05352 11.4993 6.70834C11.4993 6.39193 11.7345 6.13044 12.0395 6.08905L12.1243 6.08334H15.8743Z" fill="white"/>
</svg>
