<svg width="22" height="22" viewBox="0 0 22 22" fill="none" xmlns="http://www.w3.org/2000/svg">
<g clip-path="url(#clip0_6689_32205)">
<path d="M11 22C17.0751 22 22 17.0751 22 11C22 4.92487 17.0751 0 11 0C4.92487 0 0 4.92487 0 11C0 17.0751 4.92487 22 11 22Z" fill="#59AF99"/>
<path d="M12.1419 9.64576V8.34666H15.0976V6.29736H6.89491V8.34666H9.85831V9.64576C7.37561 9.76566 5.51221 10.264 5.51221 10.8558C5.51221 11.4476 7.37341 11.9481 9.85831 12.0658V16.3558H12.1419V12.0658C14.6246 11.947 16.488 11.4487 16.488 10.8558C16.488 10.2629 14.6301 9.76566 12.1419 9.64576ZM11.0001 11.6874C8.31171 11.6874 6.13261 11.2716 6.13261 10.7711C6.13261 10.341 7.71991 9.97906 9.85611 9.88226V11.3497C10.2235 11.3662 10.6052 11.3761 10.9979 11.3761C11.3906 11.3761 11.7745 11.3662 12.1397 11.3497V9.88226C14.2759 9.97906 15.8632 10.341 15.8632 10.7711C15.8676 11.2771 13.6885 11.6874 11.0001 11.6874Z" fill="white"/>
</g>
<defs>
<clipPath id="clip0_6689_32205">
<rect width="22" height="22" fill="white"/>
</clipPath>
</defs>
</svg>
