<svg width="36" height="36" viewBox="0 0 36 36" fill="none" xmlns="http://www.w3.org/2000/svg">
<circle cx="18" cy="18" r="18" fill="white"/>
<path d="M10.255 12.8182V23H8.10227V14.8615H8.04261L5.71094 16.3232V14.4141L8.23153 12.8182H10.255ZM16.4732 23.1392C15.7076 23.1392 15.0265 23.0149 14.4299 22.7663C13.8366 22.5144 13.3709 22.1714 13.0328 21.7372C12.6948 21.303 12.5257 20.8108 12.5257 20.2607C12.5257 19.8364 12.6219 19.447 12.8141 19.0923C13.0096 18.7344 13.2748 18.4377 13.6096 18.2024C13.9443 17.9638 14.3188 17.8113 14.7331 17.745V17.6754C14.1896 17.5661 13.7488 17.3026 13.4107 16.8849C13.0726 16.464 12.9036 15.9751 12.9036 15.4183C12.9036 14.8913 13.0577 14.4223 13.3659 14.0114C13.6742 13.5971 14.0968 13.2723 14.6337 13.0369C15.1739 12.7983 15.7871 12.679 16.4732 12.679C17.1593 12.679 17.7708 12.7983 18.3077 13.0369C18.848 13.2756 19.2722 13.602 19.5804 14.0163C19.8887 14.4273 20.0444 14.8946 20.0478 15.4183C20.0444 15.9785 19.8721 16.4673 19.5307 16.8849C19.1893 17.3026 18.7518 17.5661 18.2182 17.6754V17.745C18.6259 17.8113 18.9954 17.9638 19.3269 18.2024C19.6616 18.4377 19.9268 18.7344 20.1223 19.0923C20.3212 19.447 20.4223 19.8364 20.4256 20.2607C20.4223 20.8108 20.2516 21.303 19.9135 21.7372C19.5755 22.1714 19.1081 22.5144 18.5115 22.7663C17.9183 23.0149 17.2388 23.1392 16.4732 23.1392ZM16.4732 21.5582C16.8146 21.5582 17.1129 21.4969 17.3681 21.3743C17.6233 21.2483 17.8221 21.076 17.9647 20.8572C18.1105 20.6352 18.1834 20.38 18.1834 20.0916C18.1834 19.7966 18.1088 19.5365 17.9597 19.3111C17.8105 19.0824 17.6084 18.9034 17.3532 18.7741C17.098 18.6416 16.8046 18.5753 16.4732 18.5753C16.1451 18.5753 15.8517 18.6416 15.5932 18.7741C15.3347 18.9034 15.1309 19.0824 14.9817 19.3111C14.8359 19.5365 14.763 19.7966 14.763 20.0916C14.763 20.38 14.8342 20.6352 14.9767 20.8572C15.1193 21.076 15.3198 21.2483 15.5783 21.3743C15.8368 21.4969 16.1351 21.5582 16.4732 21.5582ZM16.4732 17.0092C16.7582 17.0092 17.0118 16.9512 17.2338 16.8352C17.4559 16.7192 17.6299 16.5585 17.7559 16.353C17.8818 16.1475 17.9448 15.9105 17.9448 15.642C17.9448 15.3769 17.8818 15.1449 17.7559 14.946C17.6299 14.7438 17.4576 14.5864 17.2388 14.4737C17.0201 14.3577 16.7649 14.2997 16.4732 14.2997C16.1848 14.2997 15.9296 14.3577 15.7076 14.4737C15.4855 14.5864 15.3115 14.7438 15.1855 14.946C15.0629 15.1449 15.0016 15.3769 15.0016 15.642C15.0016 15.9105 15.0646 16.1475 15.1905 16.353C15.3165 16.5585 15.4905 16.7192 15.7125 16.8352C15.9346 16.9512 16.1882 17.0092 16.4732 17.0092ZM24.9734 21.4489V14.4091H26.7532V21.4489H24.9734ZM22.3434 18.8189V17.0391H29.3832V18.8189H22.3434Z" fill="#13161F"/>
</svg>
