<svg width="203" height="24" viewBox="0 0 203 24" fill="none" xmlns="http://www.w3.org/2000/svg">
<g clip-path="url(#clip0_8616_84157)">
<path d="M4.31631 14.3878V18.7198H7.55345C8.78665 18.8001 9.86569 17.9176 9.94283 16.6339V16.5537C9.94283 15.1899 8.86379 14.3074 7.24529 14.3074L4.31631 14.3878ZM4.31631 8.05022V11.9009H7.32223C8.40127 11.9811 9.40324 11.1789 9.48019 10.0558V9.8953C9.48019 8.85245 8.47825 8.0502 7.0908 8.0502L4.31631 8.05022ZM0 5.48318H5.85774C8.47835 5.48318 9.40324 5.56343 10.1741 5.88427C11.6385 6.60629 12.4863 8.05026 12.4863 9.73513C12.4863 11.3395 12.0239 12.1418 10.4822 12.9441C12.1009 13.5056 13.18 15.1101 13.0259 16.875C13.0259 19.5224 11.0218 21.2871 8.09304 21.2871H0.000199331V18.7201H1.15632V8.05047H0.000199331V5.48322" fill="white"/>
<path d="M22.8912 13.8258C22.8912 12.462 21.8122 11.4191 20.579 11.4191H20.502C19.1917 11.4191 18.1126 12.462 17.8814 13.7457L22.8912 13.8258ZM25.8214 17.3555C25.2812 20.003 23.2002 21.6074 20.4255 21.6074C17.1883 21.6074 14.799 18.9601 14.799 15.2698C14.799 11.5795 17.1883 8.9322 20.4255 8.9322C22.1981 8.9322 23.8938 9.81459 24.8959 11.4191C25.6667 12.7829 26.1291 14.3071 26.052 15.9117H17.7277C18.0361 19.0404 19.963 19.201 20.5026 19.201C21.5816 19.2813 22.5836 18.4791 22.892 17.436L25.8208 17.3558" fill="white"/>
<path d="M35.455 13.4246H40.7732V21.2863H39.0775V18.7995C38.7693 19.3609 38.3838 19.8422 37.9214 20.3236C36.9195 21.2062 35.6863 21.6875 34.453 21.6875C30.9075 21.6875 28.1328 18.0775 28.1328 13.4246C28.1328 8.77161 30.9075 5.08133 34.3761 5.08133C36.3028 5.00118 37.9985 6.12428 38.9234 7.80895V5.32199H40.542V10.376H38.8465C38.6922 9.65398 38.3838 9.01219 37.9985 8.45057C37.2277 7.4077 35.9946 6.76593 34.7614 6.68568C32.9116 6.68568 30.1369 8.37042 30.1369 13.264C30.1369 17.1146 32.1408 19.9225 34.7614 19.9225C36.8424 19.8422 38.5381 18.2379 38.9234 16.1522C39.0005 15.7511 39.0005 15.2697 39.0005 14.8686H35.3779L35.455 13.4246Z" fill="white"/>
<path d="M50.4068 15.1099L49.3284 15.2705C45.7829 15.7518 44.6267 16.3935 44.6267 17.9178C44.7039 19.2817 45.7829 20.2444 47.0161 20.2444C48.7116 20.1641 50.1761 18.8804 50.4074 17.1155L50.4068 15.1099ZM53.721 21.3674H50.4068V19.2014C49.6359 20.7258 48.0945 21.6081 46.4759 21.6081C44.549 21.7685 42.8533 20.1641 42.6992 18.1585V17.9178C42.6992 15.5915 44.6262 14.4682 49.2506 13.9869L50.3296 13.9067V12.7033C50.3296 11.3395 49.3278 10.457 47.7092 10.457C46.0906 10.457 45.2427 11.0186 44.9343 12.623H43.1617C43.3158 11.6604 43.7782 10.7779 44.4719 10.1361C45.3198 9.41406 46.4759 9.09312 47.5549 9.09312C49.9443 9.09312 51.9484 10.2163 51.9484 13.2647V19.9233H53.5669L53.721 21.3674Z" fill="white"/>
<path d="M58.5777 11.4997C59.1173 10.6975 60.1194 9.01275 62.2775 9.01275C63.8189 9.01275 64.6667 9.815 64.9751 11.4997C65.2834 10.9382 65.5916 10.4568 66.0542 9.97546C66.7479 9.33367 67.5957 8.9325 68.5206 8.9325C70.2932 8.9325 71.2953 10.1359 71.2953 12.2217V19.8428H72.9138V21.2868H69.6767V12.8635C69.6767 11.1788 69.1371 10.3765 67.981 10.3765C65.9771 10.3765 64.8979 12.8635 64.8979 13.7459V19.8428H66.5936V21.2869H63.2024V12.6229C63.2024 11.0986 62.6628 10.4569 61.5067 10.4569C59.7341 10.4569 58.4236 12.7835 58.4236 13.9065V19.9231H60.1194V21.3672H55.1094V19.9231H56.8051V10.6172H55.1094V9.17323H58.5008L58.5777 11.4997Z" fill="white"/>
<path d="M77.9217 16.2327C77.9217 18.2383 79.3862 19.8427 81.236 20.0033C83.2399 20.0033 84.4731 18.158 84.4731 15.1897C84.4731 12.2215 83.1629 10.4565 81.236 10.4565C79.5403 10.4565 77.8446 12.3818 77.8446 14.1468L77.9217 16.2327ZM74.6846 4.76079H77.9217V11.7403C78.3842 10.8578 79.6944 9.09279 81.6984 9.09279C84.319 9.09279 86.3229 11.9007 86.3229 15.4304C86.3229 18.7196 84.1647 21.5273 81.6984 21.5273C79.6174 21.5273 78.6154 20.0833 77.9217 19.1207V21.367H74.6074V19.9229H76.226V6.20475H74.6846V4.76079Z" fill="white"/>
<path d="M87.3135 4.76097H90.6277V19.9231H92.1692V21.3672H87.2363V19.9231H88.932V6.12488H87.3135V4.76097Z" fill="white"/>
<path d="M101.804 14.3071C101.804 13.1841 101.419 12.1411 100.648 11.2588C100.109 10.7775 99.4149 10.4565 98.7212 10.5368C97.2569 10.617 96.0237 11.6599 95.6384 13.1038C95.5612 13.505 95.4072 13.906 95.4072 14.3071L101.804 14.3071ZM103.5 17.9974C103.346 18.7194 103.038 19.2811 102.575 19.8425C101.65 20.9657 100.34 21.6074 98.8755 21.6074C95.7153 21.6074 93.4802 19.0404 93.4802 15.3501C93.4802 11.8202 95.7153 9.09257 98.5672 9.09257C101.419 9.09257 103.731 11.4192 103.731 15.6709H95.33C95.4841 17.4357 95.8696 18.4788 96.6402 19.2811C97.2569 19.8424 98.0276 20.1634 98.7984 20.1634C100.109 20.1634 100.957 19.5217 101.573 18.0775L103.5 17.9974Z" fill="white"/>
<path d="M112.672 8.4513L110.668 15.5109H114.676L112.672 8.4513ZM110.822 5.48301H114.522L118.761 18.8002H119.917V21.3672H116.449L115.446 17.9176H110.051L109.049 21.3672H105.504V18.8002H106.66L110.822 5.48301Z" fill="white"/>
<path d="M119.762 9.25359H124.386V11.5802H123.23L124.849 18.7201L126.776 9.2538H129.781L131.708 18.5597L133.25 11.5802H132.094V9.25359H136.718V11.5802H135.716L133.25 21.2871H130.167L128.24 12.9441L126.39 21.2871H123.307L120.764 11.5802H119.762V9.25359Z" fill="white"/>
<path d="M144.891 15.6711C142.192 15.9116 140.42 16.1525 140.42 17.8369C140.42 18.7998 141.19 19.4415 142.346 19.4415C143.734 19.4415 144.89 18.3185 144.967 16.8745V16.7942V15.6711H144.891ZM147.665 19.0404H148.667V21.3668H145.045V19.9228C144.197 21.0458 142.887 21.6074 141.499 21.6074C139.187 21.6074 137.414 20.0031 137.414 17.8368C137.414 14.3071 141.268 13.9061 144.968 13.5851C144.968 11.74 144.351 11.1785 142.886 11.1785C141.422 11.1785 140.883 11.9005 140.805 13.0236V13.1038L138.031 13.0236C138.185 10.6169 140.035 9.09263 142.809 9.09263C146.047 9.09263 147.742 10.6169 147.742 13.3445L147.665 19.0404Z" fill="white"/>
<path d="M154.13 11.1771C154.901 9.65287 155.749 9.01105 157.059 9.01105C157.521 9.01105 157.907 9.0912 158.369 9.17145V11.9794C157.907 11.8991 157.444 11.8189 156.982 11.8189C155.517 11.7387 154.284 12.8618 154.207 14.3058V18.9588H155.595V21.2852H150.199V18.9588H151.355V11.5782H150.199V9.25164H154.13V11.1771Z" fill="white"/>
<path d="M167.003 13.8258C167.003 12.462 165.924 11.4191 164.691 11.4191H164.613C163.303 11.4191 162.224 12.462 161.993 13.7457L167.003 13.8258ZM170.009 17.3555C169.47 20.003 167.389 21.6074 164.615 21.6074C161.378 21.6074 158.988 18.9601 158.988 15.2698C158.988 11.5795 161.378 8.9322 164.615 8.9322C166.388 8.9322 168.083 9.81459 169.085 11.4191C169.856 12.7829 170.318 14.3071 170.241 15.9117H161.917C162.225 19.0404 164.152 19.201 164.692 19.201C165.771 19.2813 166.773 18.4791 167.081 17.436L170.01 17.3558" fill="white"/>
<path d="M199.712 3.60159C199.821 3.58188 199.917 3.54515 199.999 3.49017C200.08 3.4354 200.146 3.36174 200.196 3.26859C200.244 3.17605 200.27 3.05634 200.27 2.9082C200.27 2.70363 200.214 2.53681 200.104 2.40839C199.997 2.27975 199.819 2.21564 199.576 2.21564H198.288V3.6298H199.369C199.488 3.6298 199.604 3.62026 199.712 3.60159ZM199.604 1.76106C199.975 1.76106 200.264 1.85525 200.473 2.04489C200.682 2.23431 200.786 2.49366 200.786 2.82272C200.786 3.06962 200.734 3.28498 200.627 3.47067C200.519 3.65636 200.348 3.78334 200.11 3.85139V3.86239C200.224 3.88521 200.316 3.92276 200.387 3.97588C200.457 4.02941 200.513 4.09269 200.555 4.16634C200.597 4.23999 200.629 4.32236 200.649 4.41324C200.668 4.50411 200.684 4.59872 200.694 4.69748C200.702 4.79624 200.706 4.89666 200.71 4.99832C200.714 5.10102 200.724 5.20124 200.738 5.29937C200.752 5.39792 200.774 5.49212 200.802 5.5805C200.828 5.66993 200.87 5.74815 200.924 5.81641H200.346C200.31 5.7747 200.284 5.71765 200.272 5.64628C200.258 5.57428 200.25 5.49357 200.248 5.40415C200.244 5.31576 200.24 5.22012 200.236 5.11742C200.232 5.01554 200.222 4.91533 200.204 4.81657C200.188 4.71802 200.17 4.62466 200.148 4.53544C200.126 4.44685 200.092 4.36925 200.045 4.30265C199.999 4.23605 199.935 4.18356 199.859 4.14372C199.783 4.10368 199.682 4.08418 199.554 4.08418H198.288V5.81641H197.77V1.76106H199.604Z" fill="white"/>
<path d="M199.218 0.643294C197.476 0.643294 196.058 2.11883 196.058 3.93233C196.058 5.74604 197.476 7.22157 199.218 7.22157C200.959 7.22157 202.379 5.746 202.379 3.93233C202.379 2.11883 200.959 0.643294 199.218 0.643294ZM199.218 7.86328C197.136 7.86328 195.441 6.09974 195.441 3.93233C195.441 1.76509 197.136 0.00158691 199.218 0.00158691C201.3 0.00158691 202.995 1.76509 202.995 3.93233C202.995 6.09978 201.3 7.86328 199.218 7.86328Z" fill="white"/>
<path d="M171.621 19.7773H173.061V21.2441H171.621V19.7773Z" fill="white"/>
<path d="M178.126 20.3576C179.705 20.3576 180.65 19.036 180.65 16.8603C180.65 14.8135 179.659 13.508 178.126 13.508C176.624 13.508 175.695 14.8136 175.695 16.9248C175.695 19.0844 176.608 20.3576 178.126 20.3576ZM174.348 16.8924C174.348 14.2495 175.912 12.4281 178.172 12.4281C180.387 12.4281 181.997 14.3138 181.997 16.8924C181.997 19.5842 180.417 21.4375 178.141 21.4375C175.881 21.4375 174.348 19.6002 174.348 16.8924Z" fill="white"/>
<path d="M185.249 14.5555C185.652 13.6529 185.869 13.379 186.24 13.0084C186.674 12.6214 187.216 12.4119 187.758 12.4119C187.959 12.4119 188.238 12.4442 188.656 12.5088V13.782C188.238 13.7013 187.99 13.6692 187.774 13.6692C185.513 13.6692 185.249 16.1028 185.249 16.2318V20.2288H186.674V21.2441H182.865V20.2288H184.057V13.5884H182.818V12.5569H185.249V14.5555Z" fill="white"/>
<path d="M195.189 15.7643C195.189 14.8135 194.074 13.4597 192.804 13.4597C191.442 13.4597 190.605 14.62 190.605 16.5058C190.605 18.4237 191.457 19.5843 192.882 19.5843C194.105 19.5843 195.189 18.3432 195.189 17.3278V15.7643ZM195.189 19.1168C194.43 20.2288 193.594 20.5993 192.68 20.5993C190.683 20.5993 189.305 18.891 189.305 16.425C189.305 14.0881 190.652 12.4281 192.541 12.4281C194.074 12.4281 194.755 13.4434 195.189 14.1043V12.557H197.542V13.5885H196.381V20.7122C196.381 22.8072 195.095 24 192.835 24C191.457 24 190.28 23.3713 189.723 22.356C189.614 22.1465 189.521 21.9369 189.382 21.5018H190.729C191.225 22.5493 191.813 22.9361 192.928 22.9361C194.337 22.9361 195.189 22.1788 195.189 20.9216V19.1166" fill="white"/>
</g>
<defs>
<clipPath id="clip0_8616_84157">
<rect width="203" height="24" fill="white"/>
</clipPath>
</defs>
</svg>
