<svg width="25" height="24" viewBox="0 0 25 24" fill="none" xmlns="http://www.w3.org/2000/svg">
<path d="M20.75 5.25H20C20 4.85218 19.842 4.47064 19.5607 4.18934C19.2794 3.90804 18.8978 3.75 18.5 3.75C17.3767 3.75218 16.2657 3.98267 15.2342 4.42747C14.2028 4.87227 13.2726 5.52211 12.5 6.3375C11.7274 5.52211 10.7972 4.87227 9.76577 4.42747C8.73434 3.98267 7.62325 3.75218 6.5 3.75C6.10218 3.75 5.72064 3.90804 5.43934 4.18934C5.15804 4.47064 5 4.85218 5 5.25H4.25C3.65326 5.25 3.08097 5.48705 2.65901 5.90901C2.23705 6.33097 2 6.90326 2 7.5V18C2 18.5967 2.23705 19.169 2.65901 19.591C3.08097 20.0129 3.65326 20.25 4.25 20.25H20.75C21.3467 20.25 21.919 20.0129 22.341 19.591C22.7629 19.169 23 18.5967 23 18V7.5C23 6.90326 22.7629 6.33097 22.341 5.90901C21.919 5.48705 21.3467 5.25 20.75 5.25ZM18.5 5.25V15.75C16.5827 15.7532 14.7263 16.4242 13.25 17.6475V7.77C13.8836 6.98713 14.6834 6.35491 15.5914 5.91908C16.4993 5.48325 17.4928 5.25471 18.5 5.25ZM6.5 5.25C7.50715 5.25471 8.50066 5.48325 9.40864 5.91908C10.3166 6.35491 11.1164 6.98713 11.75 7.77V17.6475C10.2737 16.4242 8.41733 15.7532 6.5 15.75V5.25ZM3.5 18V7.5C3.5 7.30109 3.57902 7.11032 3.71967 6.96967C3.86032 6.82902 4.05109 6.75 4.25 6.75H5V15.75C5 16.1478 5.15804 16.5294 5.43934 16.8107C5.72064 17.092 6.10218 17.25 6.5 17.25C8.03982 17.2529 9.53237 17.7822 10.73 18.75H4.25C4.05109 18.75 3.86032 18.671 3.71967 18.5303C3.57902 18.3897 3.5 18.1989 3.5 18ZM21.5 18C21.5 18.1989 21.421 18.3897 21.2803 18.5303C21.1397 18.671 20.9489 18.75 20.75 18.75H14.27C15.4676 17.7822 16.9602 17.2529 18.5 17.25C18.8978 17.25 19.2794 17.092 19.5607 16.8107C19.842 16.5294 20 16.1478 20 15.75V6.75H20.75C20.9489 6.75 21.1397 6.82902 21.2803 6.96967C21.421 7.11032 21.5 7.30109 21.5 7.5V18Z" fill="#0099FA"/>
</svg>
