<svg width="24" height="24" viewBox="0 0 24 24" fill="none" xmlns="http://www.w3.org/2000/svg">
<path d="M16 2V6" stroke="white" stroke-width="1.5" stroke-linecap="round" stroke-linejoin="round"/>
<path d="M8 2V6" stroke="white" stroke-width="1.5" stroke-linecap="round" stroke-linejoin="round"/>
<path d="M3 9H21" stroke="white" stroke-width="1.5" stroke-linecap="round" stroke-linejoin="round"/>
<path fill-rule="evenodd" clip-rule="evenodd" d="M19 4H5C3.9 4 3 4.9 3 6V19C3 20.1 3.9 21 5 21H19C20.1 21 21 20.1 21 19V6C21 4.9 20.1 4 19 4Z" stroke="white" stroke-width="1.5" stroke-linecap="round" stroke-linejoin="round"/>
<path d="M7.00078 12.8C6.90078 12.8 6.80078 12.9 6.80078 13.1C6.80078 13.2 6.90078 13.3 7.10078 13.3C7.20078 13.3 7.30078 13.2 7.30078 13.1C7.30078 13 7.10078 12.8 7.00078 12.8" stroke="white" stroke-width="1.5" stroke-linecap="round" stroke-linejoin="round"/>
<path d="M12.0008 12.8C11.9008 12.8 11.8008 12.9 11.8008 13.1C11.8008 13.2 11.9008 13.3 12.1008 13.3C12.2008 13.3 12.3008 13.2 12.3008 13.1C12.3008 13 12.1008 12.8 12.0008 12.8" stroke="white" stroke-width="1.5" stroke-linecap="round" stroke-linejoin="round"/>
<path d="M17.0008 12.8C16.9008 12.8 16.8008 12.9 16.8008 13.1C16.8008 13.2 16.9008 13.3 17.1008 13.3C17.2008 13.3 17.3008 13.2 17.3008 13.1C17.3008 13 17.1008 12.8 17.0008 12.8" stroke="white" stroke-width="1.5" stroke-linecap="round" stroke-linejoin="round"/>
<path d="M7.00078 16.8C6.90078 16.8 6.80078 16.9 6.80078 17.1C6.80078 17.2 6.90078 17.3 7.10078 17.3C7.20078 17.3 7.30078 17.2 7.30078 17.1C7.30078 17 7.10078 16.8 7.00078 16.8" stroke="white" stroke-width="1.5" stroke-linecap="round" stroke-linejoin="round"/>
<path d="M12.0008 16.8C11.9008 16.8 11.8008 16.9 11.8008 17.1C11.8008 17.2 11.9008 17.3 12.1008 17.3C12.2008 17.3 12.3008 17.2 12.3008 17.1C12.3008 17 12.1008 16.8 12.0008 16.8" stroke="white" stroke-width="1.5" stroke-linecap="round" stroke-linejoin="round"/>
</svg>
