<svg width="25" height="24" viewBox="0 0 25 24" fill="none" xmlns="http://www.w3.org/2000/svg">
<g clip-path="url(#clip0_8487_90758)">
<path d="M21.8099 4.91478L13.9816 0.394709C13.0682 -0.13164 11.9335 -0.13164 11.0195 0.395131L3.19256 4.91436C2.27868 5.44104 1.71094 6.42412 1.71094 7.48V16.52C1.71094 17.5758 2.27868 18.5589 3.19256 19.0856C4.10644 19.6123 11.0202 23.6053 11.0202 23.6053C11.4769 23.8685 11.9888 24 12.5008 24C13.0129 24 13.525 23.8684 13.9818 23.6051C13.9818 23.6051 20.8735 19.6263 21.8092 19.0856C22.7231 18.5589 23.2908 17.5758 23.2908 16.52V7.48C23.2908 6.42412 22.7231 5.44104 21.8099 4.91478ZM3.11741 7.48C3.11741 7.4522 3.11872 7.42459 3.12018 7.39697L6.75239 9.49365V13.6929L3.11741 11.5939V7.48ZM8.15891 10.3056L11.7977 12.406V16.6061L8.15891 14.505V10.3056ZM12.5009 11.188L8.86271 9.08788L12.5009 6.98792L16.139 9.08788L12.5009 11.188ZM13.2041 12.406L16.8429 10.3056V14.505L13.2041 16.6061V12.406ZM18.2494 9.49365L21.8816 7.39697C21.8831 7.42454 21.8843 7.4522 21.8843 7.48V11.594L18.2494 13.6929V9.49365ZM21.1797 6.17817L17.5458 8.27583L13.9077 6.17592L17.5458 4.07596L21.1069 6.13293C21.1317 6.14728 21.1558 6.16261 21.1797 6.17817ZM11.7225 1.61328C11.9626 1.47493 12.2318 1.40573 12.501 1.40573C12.7701 1.40573 13.0391 1.47488 13.2791 1.61314L16.1393 3.26382L12.5009 5.36392L8.86332 3.26433L11.7225 1.61328ZM7.45661 4.07634L11.0941 6.17592L7.45605 8.27583L3.82215 6.17817C3.8462 6.16247 3.92032 6.1175 3.89556 6.13251C3.84624 6.16247 7.45661 4.07634 7.45661 4.07634ZM3.89486 17.867C3.4153 17.5906 3.11741 17.0745 3.11741 16.52V13.2181L6.75239 15.317V19.5171L3.89552 17.8674C3.89533 17.8673 3.8951 17.8671 3.89486 17.867ZM8.15891 20.329V16.1291L11.7977 18.2302V22.4267C11.7727 22.414 11.7477 22.4011 11.7232 22.387L8.15891 20.329ZM13.2793 22.3866C13.2546 22.4008 13.2294 22.4139 13.2041 22.4267V18.2302L16.8429 16.1291V20.3299L13.2793 22.3866ZM21.1062 17.8674L18.2494 19.5177V15.317L21.8843 13.218V16.5199C21.8843 17.0745 21.5865 17.5906 21.1062 17.8674Z" fill="#0099FA"/>
</g>
<defs>
<clipPath id="clip0_8487_90758">
<rect width="24" height="24" fill="white" transform="translate(0.5)"/>
</clipPath>
</defs>
</svg>
