<svg width="25" height="19" viewBox="0 0 25 19" fill="none" xmlns="http://www.w3.org/2000/svg">
<path d="M21.0564 2.07891C19.4473 1.37466 17.7268 0.862844 15.9281 0.571411C15.7072 0.945018 15.4492 1.44753 15.2712 1.84727C13.3592 1.57828 11.4647 1.57828 9.58777 1.84727C9.40987 1.44753 9.14593 0.945018 8.92305 0.571411C7.12241 0.862844 5.39996 1.37654 3.79091 2.08264C0.545451 6.67044 -0.33434 11.1443 0.105557 15.5546C2.25812 17.0583 4.34421 17.9718 6.3951 18.5696C6.90147 17.9176 7.35309 17.2246 7.74215 16.4942C7.00117 16.2308 6.29148 15.9058 5.6209 15.5285C5.7988 15.4052 5.97282 15.2763 6.14094 15.1436C10.231 16.9332 14.6749 16.9332 18.7161 15.1436C18.8862 15.2763 19.0602 15.4052 19.2362 15.5285C18.5636 15.9077 17.852 16.2327 17.111 16.4961C17.5 17.2246 17.9497 17.9195 18.458 18.5714C20.5109 17.9737 22.5989 17.0602 24.7515 15.5546C25.2676 10.4419 23.8698 6.00916 21.0564 2.07891ZM8.29936 12.8423C7.07157 12.8423 6.06468 11.7701 6.06468 10.4643C6.06468 9.1586 7.05007 8.08451 8.29936 8.08451C9.54869 8.08451 10.5555 9.15672 10.534 10.4643C10.536 11.7701 9.54869 12.8423 8.29936 12.8423ZM16.5577 12.8423C15.3299 12.8423 14.323 11.7701 14.323 10.4643C14.323 9.1586 15.3084 8.08451 16.5577 8.08451C17.807 8.08451 18.8139 9.15672 18.7924 10.4643C18.7924 11.7701 17.807 12.8423 16.5577 12.8423Z" fill="white"/>
</svg>
