<svg width="22" height="21" viewBox="0 0 22 21" fill="none" xmlns="http://www.w3.org/2000/svg">
<path d="M21.5969 20.3173V20.3165H21.6024V13.0845C21.6024 9.54662 20.7484 6.82129 16.1107 6.82129C13.8812 6.82129 12.385 7.91241 11.7742 8.94683H11.7097V7.15158H7.3125V20.3165H11.8912V13.7977C11.8912 12.0813 12.2561 10.4217 14.6394 10.4217C16.9877 10.4217 17.0227 12.3804 17.0227 13.9078V20.3173H21.5969Z" fill="#5CA2F8"/>
<path d="M0.171875 6.82129H4.63747V20.3173H0.171875V6.82129Z" fill="#5CA2F8"/>
<path d="M2.85123 0.0727539C1.3721 0.0727539 0.171875 1.20102 0.171875 2.59146C0.171875 3.9819 1.3721 5.13376 2.85123 5.13376C4.33036 5.13376 5.53059 3.9819 5.53059 2.59146C5.52966 1.20102 4.32943 0.0727539 2.85123 0.0727539V0.0727539Z" fill="#5CA2F8"/>
</svg>
