<svg width="25" height="24" viewBox="0 0 25 24" fill="none" xmlns="http://www.w3.org/2000/svg">
<path d="M12.4995 21.7495C12.3365 21.7494 12.178 21.6963 12.0479 21.5982C11.9178 21.5 11.8232 21.3622 11.7785 21.2055L10.9995 18.4785C10.6646 17.292 10.031 16.2113 9.15931 15.3396C8.2876 14.4679 7.20689 13.8343 6.02046 13.4995L3.29346 12.7205C3.13686 12.6756 2.99913 12.581 2.90108 12.4509C2.80303 12.3208 2.75 12.1624 2.75 11.9995C2.75 11.8366 2.80303 11.6781 2.90108 11.548C2.99913 11.4179 3.13686 11.3233 3.29346 11.2785L6.02046 10.4995C7.20689 10.1646 8.2876 9.53102 9.15931 8.65931C10.031 7.7876 10.6646 6.70689 10.9995 5.52046L11.7785 2.79346C11.8233 2.63686 11.9179 2.49913 12.048 2.40108C12.1781 2.30303 12.3366 2.25 12.4995 2.25C12.6624 2.25 12.8208 2.30303 12.9509 2.40108C13.081 2.49913 13.1756 2.63686 13.2205 2.79346L13.9995 5.52046C14.3343 6.70689 14.9679 7.7876 15.8396 8.65931C16.7113 9.53102 17.792 10.1646 18.9785 10.4995L21.7055 11.2785C21.8621 11.3233 21.9998 11.4179 22.0978 11.548C22.1959 11.6781 22.2489 11.8366 22.2489 11.9995C22.2489 12.1624 22.1959 12.3208 22.0978 12.4509C21.9998 12.581 21.8621 12.6756 21.7055 12.7205L18.9785 13.4995C17.792 13.8343 16.7113 14.4679 15.8396 15.3396C14.9679 16.2113 14.3343 17.292 13.9995 18.4785L13.2205 21.2055C13.1757 21.3622 13.0811 21.5 12.951 21.5982C12.8209 21.6963 12.6624 21.7494 12.4995 21.7495ZM6.22946 11.9995L6.42946 12.0575C7.86128 12.4617 9.16552 13.2263 10.2176 14.2784C11.2696 15.3304 12.0342 16.6346 12.4385 18.0665L12.4965 18.2665L12.5545 18.0665C12.9587 16.6346 13.7233 15.3304 14.7754 14.2784C15.8274 13.2263 17.1316 12.4617 18.5635 12.0575L18.7635 11.9995L18.5635 11.9415C17.1316 11.5372 15.8274 10.7726 14.7754 9.72055C13.7233 8.66852 12.9587 7.36428 12.5545 5.93246L12.4995 5.73046L12.4415 5.93046C12.0372 7.36228 11.2726 8.66652 10.2206 9.71855C9.16852 10.7706 7.86428 11.5352 6.43246 11.9395L6.22946 11.9995Z" fill="#0099FA"/>
</svg>
