<svg width="28" height="28" viewBox="0 0 28 28" fill="none" xmlns="http://www.w3.org/2000/svg">
<rect width="28" height="28" rx="8" fill="#0074FF"/>
<path d="M22.3336 10.8019L22.3336 10.8623C22.3336 11.5796 22.3336 11.9383 22.1609 12.2317C21.9883 12.5251 21.6748 12.6993 21.0477 13.0477L20.3866 13.4149C20.8422 11.8748 20.9942 10.2201 21.0504 8.80494C21.0528 8.74426 21.0555 8.68284 21.0582 8.62076L21.0602 8.57728C21.6029 8.76576 21.9076 8.90627 22.0977 9.17003C22.3336 9.4974 22.3336 9.93223 22.3336 10.8019Z" fill="white"/>
<path d="M5.66699 10.8019L5.66699 10.8623C5.66701 11.5796 5.66702 11.9383 5.83968 12.2317C6.01234 12.5251 6.32585 12.6993 6.95287 13.0477L7.61433 13.4152C7.15872 11.875 7.00672 10.2201 6.95053 8.80494C6.94813 8.74426 6.94541 8.68284 6.94267 8.62076L6.94075 8.57718C6.39783 8.76571 6.09304 8.90622 5.90291 9.17003C5.66696 9.4974 5.66697 9.93224 5.66699 10.8019Z" fill="white"/>
<path fill-rule="evenodd" clip-rule="evenodd" d="M17.6479 5.95558C16.7112 5.79753 15.4867 5.66663 14.0005 5.66663C12.5142 5.66663 11.2897 5.79753 10.353 5.95558C9.40403 6.11569 8.92956 6.19574 8.53313 6.68399C8.1367 7.17223 8.15765 7.69994 8.19955 8.75535C8.3434 12.3786 9.12529 16.9042 13.3753 17.3047V20.25H12.1835C11.7863 20.25 11.4442 20.5303 11.3663 20.9199L11.2087 21.7083H9.00033C8.65515 21.7083 8.37533 21.9881 8.37533 22.3333C8.37533 22.6785 8.65515 22.9583 9.00033 22.9583H19.0003C19.3455 22.9583 19.6253 22.6785 19.6253 22.3333C19.6253 21.9881 19.3455 21.7083 19.0003 21.7083H16.792L16.6343 20.9199C16.5564 20.5303 16.2144 20.25 15.8172 20.25H14.6253V17.3047C18.8756 16.9044 19.6575 12.3787 19.8014 8.75535C19.8433 7.69994 19.8642 7.17223 19.4678 6.68399C19.0713 6.19574 18.5969 6.11569 17.6479 5.95558Z" fill="white"/>
</svg>
