<svg width="40" height="40" viewBox="0 0 40 40" fill="none" xmlns="http://www.w3.org/2000/svg">
<path fill-rule="evenodd" clip-rule="evenodd" d="M28.333 35H11.6663C9.83301 35 8.33301 33.5 8.33301 31.6667V8.33333C8.33301 6.5 9.83301 5 11.6663 5H28.333C30.1663 5 31.6663 6.5 31.6663 8.33333V31.6667C31.6663 33.5 30.1663 35 28.333 35Z" stroke="#FFFFFF" stroke-width="1.5" stroke-linecap="round" stroke-linejoin="round"/>
<path d="M20 28.8333C19.8333 28.8333 19.6667 29 19.6667 29.3333C19.6667 29.5 19.8333 29.6666 20.1667 29.6666C20.3333 29.6666 20.5 29.5 20.5 29.3333C20.3333 29 20.1667 28.8333 20 28.8333" stroke="#FFFFFF" stroke-width="1.5" stroke-linecap="round" stroke-linejoin="round"/>
<path d="M17.833 9.99996H21.9997" stroke="#FFFFFF" stroke-width="1.5" stroke-linecap="round" stroke-linejoin="round"/>
</svg>
